<?xml version="1.0" encoding="UTF-8"?>
<svg xmlns="http://www.w3.org/2000/svg" viewBox="0 0 1024 1024">
  <defs>
    <style>
      .cls-1, .cls-2 {
        stroke-width: 0px;
      }

      .cls-2 {
        fill: #fff;
      }
    </style>
  </defs>
  <g id="Capa_2" data-name="Capa 2">
    <rect class="cls-2" width="1024" height="1024" rx="102" ry="102"/>
  </g>
  <g id="Capa_1" data-name="Capa 1">
    <g>
      <path class="cls-1" d="M225.05,621.86c5.55-19.46,10.75-39.04,16.93-58.31,1.43-4.46,5.63-8.57,9.51-11.6,35.53-27.67,76.01-46,117.73-61.92,3.17-1.21,6.38-2.35,8.27-3.05,2.62-32.68,3.75-64.54,7.95-96,19.41-145.36,126.77-235.03,249.34-252.73,43.6-6.3,86.96-5.32,128.65,10.67,22.97,8.81,42.46,22.4,47.93,48.79,4.46,21.55-.31,40.85-17.46,55.41-16.06,13.63-34.92,15.83-54.57,9.45-19.69-6.4-27.83-22.47-32.25-41.16-1.03-4.36-1.55-8.85-2.64-13.2-6.34-25.13-21.88-38.33-47.88-39.27-41.85-1.52-73.51,17.25-97.64,50.55-22.97,31.69-34.49,68.08-38.16,106.08-4.36,45.01-4.56,90.41-6.51,135.65-.09,2,.4,4.02.7,6.77,87.46-9.45,173.97-7.73,259.52,11.34.04,1.69.08,3.39.11,5.08-63.45.68-126.74,2.84-189.45,12.84-63.16,10.07-124.92,25.48-185.44,46.01-60.4,20.5-118.63,45.82-172.67,80.34l-1.98-1.75Z"/>
      <path class="cls-1" d="M514.25,530.32c0,4.56-.02,7.96,0,11.36.43,76.15.65,152.3,1.49,228.45.15,13.39,2.01,26.94,4.66,40.1,7.47,37.19,31.94,57.35,70.59,59.26,3.4.17,6.81.02,11.13.02.33,3.85.69,6.81.81,9.78.13,3.09.03,6.18.03,10.08h-301.46c0-4.51-.74-9.1.28-13.25.6-2.46,3.86-5.88,6.15-6.07,52.06-4.18,67.25-39.43,68.59-78.26,2.38-69.14,2.03-138.39,2.34-207.59.04-8.95,2.23-13.64,11.21-16.35,38.57-11.62,76.93-23.91,115.39-35.89,2.26-.71,4.69-.89,8.79-1.63Z"/>
    </g>
  </g>
</svg>