<svg xmlns="http://www.w3.org/2000/svg" width="590" height="475" viewBox="0 0 590 475">
<g>
<path d="M 0.00 402.80 L 0.00 282.24 L 6.78 275.87 C21.73,261.81 43.11,256.69 52.04,265.03 C54.57,267.40 55.00,268.54 55.00,272.88 C55.00,288.31 38.14,309.38 15.75,321.92 C9.05,325.68 9.10,326.28 16.73,333.00 C22.70,338.27 30.64,342.32 40.70,345.24 C47.61,347.24 50.66,347.50 67.50,347.46 C83.38,347.43 88.22,347.05 97.00,345.15 C107.40,342.91 123.06,338.01 128.13,335.42 L 130.75 334.08 L 128.82 327.29 C126.36,318.67 125.43,303.32 126.89,295.54 C129.51,281.59 138.23,269.47 149.73,263.81 C155.21,261.11 157.30,260.64 163.83,260.60 C170.50,260.56 172.21,260.94 176.93,263.53 C186.58,268.82 191.57,279.91 190.81,294.41 C190.49,300.45 189.69,304.01 187.65,308.46 C182.28,320.17 171.45,331.30 157.46,339.49 C153.90,341.56 151.00,343.88 151.00,344.62 C151.00,347.13 163.36,358.59 169.02,361.33 C189.47,371.25 219.05,367.21 253.21,349.84 C274.53,338.99 293.61,324.34 315.05,302.33 C333.02,283.90 347.87,264.10 360.67,241.54 C368.13,228.37 367.99,231.45 360.47,245.75 C352.68,260.54 340.46,279.46 329.94,293.00 C320.62,304.98 301.37,324.85 289.00,335.23 C263.39,356.72 233.06,371.78 206.07,376.39 C184.29,380.11 166.18,376.56 152.27,365.82 C147.31,362.00 139.65,353.44 138.74,350.72 C138.46,349.89 135.41,350.47 128.42,352.71 C108.84,358.98 98.32,360.91 79.50,361.69 C46.53,363.05 19.30,354.18 5.88,337.72 C3.54,334.85 1.26,332.07 0.81,331.55 C0.37,331.03 0.00,363.09 0.00,402.80 ZM 410.49 216.06 C410.13,217.68 409.31,218.95 408.67,218.89 C408.03,218.82 402.26,215.18 395.87,210.79 C384.27,202.83 384.22,202.81 381.63,204.51 C379.07,206.19 379.00,206.17 377.30,203.20 L 375.58 200.20 L 363.54 199.55 C347.06,198.66 345.76,198.36 346.57,195.66 C346.93,194.47 347.52,193.17 347.89,192.78 C348.25,192.38 354.81,190.79 362.46,189.26 L 376.37 186.46 L 377.70 178.48 C379.35,168.54 385.05,145.47 388.86,133.37 L 391.72 124.24 L 383.11 123.58 C378.38,123.21 362.45,122.10 347.72,121.09 C332.99,120.09 320.71,119.05 320.44,118.77 C320.16,118.50 320.75,116.07 321.75,113.38 L 323.56 108.50 L 335.43 106.00 C347.84,103.39 347.81,103.40 350.45,96.68 C351.75,93.38 352.33,92.91 354.73,93.18 C357.28,93.48 357.49,93.82 357.33,97.57 L 357.16 101.63 L 363.23 100.53 L 369.30 99.43 L 371.26 94.28 C373.39,88.67 375.05,87.42 378.17,89.09 C379.82,89.97 380.07,90.80 379.55,93.59 C379.06,96.18 379.25,97.00 380.34,97.00 C382.98,97.00 401.44,92.96 402.17,92.23 C402.56,91.83 404.98,85.43 407.55,78.00 C417.72,48.56 427.56,35.36 436.89,38.63 C440.23,39.80 441.87,44.47 441.94,53.00 C442.00,60.88 439.57,71.22 433.62,88.50 C429.97,99.11 429.37,101.78 430.39,103.00 C435.95,109.72 444.42,119.00 444.99,119.00 C445.37,119.00 446.19,117.88 446.82,116.50 C447.60,114.78 448.76,114.00 450.51,114.00 C453.98,114.00 454.61,116.30 452.74,122.12 L 451.18 127.01 L 455.50 131.75 L 459.83 136.50 L 460.89 133.75 C461.71,131.62 462.61,131.00 464.87,131.00 C468.68,131.00 469.22,132.74 467.27,138.83 L 465.67 143.84 L 473.88 152.99 C479.03,158.72 481.09,160.91 481.29,163.26 C481.41,164.79 480.74,166.38 479.62,169.07 C479.53,169.27 479.45,169.47 479.36,169.68 L 477.96 173.03 L 448.94 153.44 C432.98,142.67 419.46,134.01 418.90,134.20 C418.33,134.39 414.78,142.28 411.02,151.74 C407.25,161.19 401.51,174.06 398.25,180.34 L 392.33 191.74 L 401.73 202.43 C410.21,212.06 411.07,213.40 410.49,216.06 ZM 5.54 318.25 C6.55,320.31 7.60,322.00 7.88,322.00 C8.16,322.00 11.48,320.16 15.27,317.91 C35.71,305.77 53.51,279.54 47.52,270.39 C45.86,267.86 45.50,267.77 38.58,268.21 C29.33,268.81 22.83,272.17 13.91,280.99 C5.27,289.53 2.60,296.05 3.26,307.00 C3.52,311.38 4.47,316.06 5.54,318.25 ZM 143.61 326.18 C144.50,327.61 145.55,327.11 152.18,322.09 C164.05,313.11 170.88,303.27 171.79,293.87 C172.81,283.24 169.75,278.00 162.51,278.00 C152.64,278.00 143.86,288.70 142.08,302.91 C141.27,309.34 142.23,323.95 143.61,326.18 ZM 431.50 62.93 C436.77,66.31 437.61,65.06 433.41,60.08 C430.65,56.80 427.34,56.16 422.57,57.98 C418.65,59.46 419.50,61.00 424.25,61.01 C426.73,61.01 429.75,61.81 431.50,62.93 Z" fill="rgb(1,1,1)"/>
<path d="M 376.55 209.22 C376.84,209.50 376.22,211.89 375.19,214.52 C374.16,217.16 373.05,218.88 372.72,218.36 C372.05,217.28 375.76,208.43 376.55,209.22 Z" fill="rgb(167,167,167)"/>
</g>
</svg>